<svg width="1440" height="268" viewBox="0 0 1440 268" fill="none" xmlns="http://www.w3.org/2000/svg">
<rect y="9" width="1440" height="240" rx="25" fill="#A18167"/>
<mask id="mask0_4335_68366" style="mask-type:alpha" maskUnits="userSpaceOnUse" x="0" y="9" width="1440" height="240">
<path d="M0 29C0 17.9543 8.95431 9 20 9H1420C1431.05 9 1440 17.9543 1440 29V229C1440 240.046 1431.05 249 1420 249H20C8.95431 249 0 240.046 0 229V29Z" fill="#4A3AFF"/>
</mask>
<g mask="url(#mask0_4335_68366)">
<path opacity="0.1" d="M0.0010376 34C18.2548 34 36.3298 37.6083 53.194 44.6188C70.0583 51.6293 85.3815 61.9048 98.2888 74.8586C111.196 87.8124 121.435 103.191 128.42 120.116C135.406 137.041 139.001 155.181 139.001 173.5C139.001 191.819 135.406 209.959 128.42 226.884C121.435 243.809 111.196 259.188 98.2888 272.141C85.3815 285.095 70.0582 295.371 53.194 302.381C36.3297 309.392 18.2547 313 0.000982689 313L0.0010254 173.5L0.0010376 34Z" fill="white"/>
<path opacity="0.1" d="M-0.496735 8.81346C21.1582 8.81346 42.6012 13.0787 62.6078 21.3657C82.6144 29.6527 100.793 41.7992 116.105 57.1116C131.418 72.424 143.564 90.6024 151.851 110.609C160.138 130.616 164.403 152.059 164.403 173.714C164.403 195.369 160.138 216.811 151.851 236.818C143.564 256.825 131.418 275.003 116.105 290.315C100.793 305.628 82.6143 317.774 62.6077 326.061C42.6011 334.348 21.1582 338.614 -0.496809 338.614L-0.496749 173.714L-0.496735 8.81346Z" fill="white"/>
<path opacity="0.1" d="M-0.000900269 -16C24.8189 -16 49.3957 -11.0984 72.3262 -1.57518C95.2568 7.94809 116.092 21.9066 133.642 39.5033C151.192 57.1 165.114 77.9903 174.612 100.982C184.11 123.973 188.999 148.615 188.999 173.5C188.999 198.386 184.11 223.027 174.612 246.019C165.114 269.01 151.192 289.9 133.642 307.497C116.092 325.093 95.2567 339.052 72.3262 348.575C49.3956 358.098 24.8188 363 -0.000994437 363L-0.000916835 173.5L-0.000900269 -16Z" fill="white"/>
<path opacity="0.1" d="M1439.49 8.81346C1417.84 8.81346 1396.39 13.0787 1376.39 21.3657C1356.38 29.6527 1338.2 41.7992 1322.89 57.1116C1307.58 72.424 1295.43 90.6024 1287.15 110.609C1278.86 130.616 1274.59 152.059 1274.59 173.714C1274.59 195.369 1278.86 216.811 1287.15 236.818C1295.43 256.825 1307.58 275.003 1322.89 290.315C1338.2 305.628 1356.38 317.774 1376.39 326.061C1396.39 334.348 1417.84 338.614 1439.49 338.614L1439.49 173.714L1439.49 8.81346Z" fill="white"/>
<path opacity="0.1" d="M1439 34C1420.75 34 1402.67 37.6083 1385.81 44.6188C1368.94 51.6293 1353.62 61.9048 1340.71 74.8586C1327.8 87.8124 1317.57 103.191 1310.58 120.116C1303.59 137.041 1300 155.181 1300 173.5C1300 191.819 1303.59 209.959 1310.58 226.884C1317.57 243.809 1327.8 259.188 1340.71 272.141C1353.62 285.095 1368.94 295.371 1385.81 302.381C1402.67 309.392 1420.75 313 1439 313L1439 173.5L1439 34Z" fill="white"/>
<path opacity="0.1" d="M1439 -16C1414.18 -16 1389.6 -11.0984 1366.67 -1.57518C1343.74 7.94809 1322.91 21.9066 1305.36 39.5033C1287.81 57.1 1273.88 77.9903 1264.39 100.982C1254.89 123.973 1250 148.615 1250 173.5C1250 198.386 1254.89 223.027 1264.39 246.019C1273.88 269.01 1287.81 289.9 1305.36 307.497C1322.91 325.093 1343.74 339.052 1366.67 348.575C1389.6 358.098 1414.18 363 1439 363L1439 173.5L1439 -16Z" fill="white"/>
</g>
</svg>
